<?xml version="1.0"?>
<svg id="a" data-name="Layer 1" xmlns="http://www.w3.org/2000/svg" viewBox="0 0 1000 693.781">
  <rect x="747.788" y="3.03" width="65.75" height="333.503" fill="#fff"></rect>
  <polygon points="69.229 549.387 133.431 549.387 133.431 486.67 69.229 486.67 69.229 421.675 136.142 421.675 136.142 357.245 0 357.245 0 690.749 140.586 690.749 140.586 625.754 69.229 625.754 69.229 549.387" fill="#fff"></polygon>
  <path d="M931.545,192.902v60.066c0,7.458-1.195,13.52-3.578,18.189-2.385,4.678-6.476,7.015-12.279,7.015-5.155,0-9.121-1.896-11.894-5.685-2.773-3.787-4.153-10.296-4.153-19.519V86.03c0-7.455,1.093-13.423,3.285-17.909,2.187-4.484,6.441-6.726,12.761-6.726,5.413,0,9.411,1.738,11.992,5.21,2.575,3.477,3.865,10.205,3.865,20.181v49.27h67.685v-57.607c0-17.557-3.614-32.118-10.831-43.68-7.224-11.557-17.111-20.24-29.683-26.052C946.147,2.908,931.802.001,915.688.001c-29.526,0-50.831,8.592-63.909,25.769-13.09,17.182-19.633,41.942-19.633,74.282v153.865c0,27.035,7.509,48.07,22.53,63.098,15.017,15.034,34.837,22.551,59.464,22.551,27.07,0,48.155-6.597,63.234-19.798,15.087-13.201,22.625-34.458,22.625-63.766v-63.1h-68.455Z" fill="#fff"></path>
  <polygon points="604.242 549.387 668.44 549.387 668.44 486.668 604.242 486.668 604.242 421.673 671.151 421.673 671.151 357.245 535.009 357.245 535.009 690.749 675.597 690.749 675.597 625.752 604.242 625.752 604.242 549.387" fill="#fff"></polygon>
  <path d="M514.659,470.558c0-24.883-2.319-45.981-6.964-63.286-4.641-17.307-13.084-30.479-25.331-39.511-12.249-9.028-29.849-13.548-52.791-13.548-55.696,0-83.544,31.139-83.544,93.42v143.824c0,68.217,24.299,102.324,72.91,102.324,25.521,0,44.215-10.356,56.076-31.076l11.602,28.044h27.268v-194.228h-83.152v57.601h18.18v47.562c0,9.226-1.195,16.649-3.58,22.271-2.389,5.62-7.188,8.43-14.412,8.43-6.959,0-11.63-2.81-14.016-8.43-2.389-5.622-3.578-12.914-3.578-21.889v-161.637c0-6.187,1.257-11.872,3.772-17.052,2.512-5.184,7.699-7.77,15.568-7.77,6.314,0,10.473,2.435,12.47,7.294,2.001,4.865,2.998,10.895,2.998,18.096v29.56h66.523Z" fill="#fff"></path>
  <polygon points="72.774 336.534 .002 17.224 .002 336.534 72.774 336.534" fill="#fff"></polygon>
  <polygon points="167.081 336.534 167.081 3.031 101.333 3.031 101.333 162.772 70.008 3.031 .001 3.031 113.464 336.534 167.081 336.534" fill="#fff"></polygon>
  <path d="M356.64,87.165c0-28.545-7.127-50.218-21.37-64.994-14.246-14.783-35.096-22.17-62.561-22.17s-48.308,7.388-62.554,22.17c-14.249,14.777-21.37,36.449-21.37,64.994v158.415c0,30.443,7.188,53.721,21.562,69.826,14.374,16.106,35.159,24.162,62.362,24.162s47.995-8.055,62.369-24.162c14.374-16.105,21.562-39.382,21.562-69.826V87.165ZM288.763,248.8c0,19.584-5.157,29.371-15.467,29.371-5.935,0-10.188-2.241-12.769-6.726-2.581-4.484-3.865-11.907-3.865-22.265V86.596c0-16.8,5.67-25.2,17.016-25.2,10.054,0,15.085,8.212,15.085,24.633v162.771Z" fill="#fff"></path>
  <path d="M447.187,184.373c9.023,0,15.566,1.169,19.625,3.505,4.063,2.34,6.088,8.37,6.088,18.096v130.561h67.107v-126.204c0-13.132-2.163-23.841-6.476-32.118-4.326-8.273-11.829-13.485-22.53-15.631,13.021-4.169,21.879-11.687,26.587-22.552,4.706-10.861,7.059-25.392,7.059-43.58,0-18.823-1.514-35.217-4.544-49.172-3.03-13.958-8.993-24.827-17.889-32.597-8.896-7.77-22.045-11.65-39.451-11.65h-104.422v333.503h68.845v-152.163ZM447.57,64.801h15.857c5.676,0,9.543,2.027,11.607,6.066,2.057,4.046,3.09,12.573,3.09,25.584,0,20.085-4.708,30.126-14.111,30.126h-16.442v-61.776Z" fill="#fff"></path>
  <path d="M654.921,3.033h-93.598v333.501h91.278c28.23,0,47.991-8.588,59.27-25.772,11.279-17.177,16.919-41.558,16.919-73.143V81.481c0-25.642-6.185-45.133-18.562-58.461-12.375-13.326-30.818-19.987-55.308-19.987ZM660.332,259.789c0,11.878-6.252,17.814-18.752,17.814h-11.799V61.395h7.546c9.278,0,15.433,1.609,18.467,4.829,3.024,3.218,4.538,10.39,4.538,21.508v172.056Z" fill="#fff"></path>
  <path d="M252.774,357.246h-93.588v333.501h91.27c28.238,0,47.989-8.588,59.268-25.771,11.283-17.177,16.925-41.56,16.925-73.145v-156.136c0-25.644-6.189-45.133-18.568-58.463-12.372-13.326-30.811-19.987-55.308-19.987ZM258.195,614.004c0,11.878-6.256,17.814-18.76,17.814h-11.794v-216.21h7.539c9.284,0,15.439,1.611,18.471,4.829,3.028,3.222,4.544,10.393,4.544,21.51v172.056Z" fill="#fff"></path>
</svg>